<?xml version="1.0" encoding="UTF-8"?>
<svg viewBox="0 0 640 480" xmlns="http://www.w3.org/2000/svg">
 <defs>
  <filter id="f">
   <feGaussianBlur stdDeviation="2.32"/>
  </filter>
  <linearGradient id="e" x1="278.13" x2="197" y1="731.95" y2="591.21" gradientUnits="userSpaceOnUse">
   <stop stop-color="#809fff" offset="0"/>
   <stop stop-color="#ff80f8" stop-opacity="0" offset="1"/>
  </linearGradient>
  <linearGradient id="d" x1="354.81" x2="446.68" gradientUnits="userSpaceOnUse">
   <stop stop-color="#ff80f8" offset="0"/>
   <stop stop-color="#ff80f8" stop-opacity="0" offset="1"/>
  </linearGradient>
  <linearGradient id="c" x1="464.4" x2="547.27" y1="776.93" y2="858.13" gradientUnits="userSpaceOnUse">
   <stop stop-color="#b7b7c8" offset="0"/>
   <stop stop-color="#b7b7c8" stop-opacity="0" offset="1"/>
  </linearGradient>
  <linearGradient id="b" x1="92.043" x2="548.13" gradientUnits="userSpaceOnUse">
   <stop stop-color="#dbdee3" offset="0"/>
   <stop stop-color="#6f6f91" offset=".5055"/>
   <stop stop-color="#dbdee3" offset="1"/>
  </linearGradient>
  <linearGradient id="a" x1="88" x2="552" gradientUnits="userSpaceOnUse">
   <stop stop-color="#ccc" offset="0"/>
   <stop stop-color="#4d4d4d" offset=".24353"/>
   <stop stop-color="#e6e6e6" offset=".51078"/>
   <stop stop-color="#f2f2f2" offset=".78233"/>
   <stop stop-color="#333" offset="1"/>
  </linearGradient>
 </defs>
 <g transform="translate(0 -572.36)">
  <path d="m324 582.36c-128.13 0-232 103.87-232 232s103.87 232 232 232 232-103.87 232-232-103.87-232-232-232zm2.0312 155.22c29.034-0.038 55.664 19.97 67.688 45.844 19.486 38.376-3.652 89.219-43.594 103.12-40.469 15.726-90.534-11.779-100.84-53.594-12.144-45.256 27.128-95.759 73.938-95.312 0.94118-0.0434 1.8759-0.0615 2.8125-0.0625z" fill="#999" filter="url(#f)"/>
  <path d="m320 580.36c-128.13 0-232 103.87-232 232s103.87 232 232 232 232-103.87 232-232-103.87-232-232-232zm2.0312 155.22c29.034-0.038 55.664 19.97 67.688 45.844 19.486 38.376-3.652 89.219-43.594 103.12-40.469 15.726-90.534-11.779-100.84-53.594-12.144-45.256 27.128-95.759 73.938-95.312 0.94118-0.0434 1.8759-0.0613 2.8125-0.0625z" fill="url(#a)" stroke="#4d4d4d" stroke-width=".3"/>
  <path d="m321.12 584.36c-1.3559-2e-3 -2.7061 8e-3 -4.0625 0.0312-76.855 0.14547-151.43 42.892-191.34 108.38-39.203 62.988-44.794 146.02-13.531 213.72 29.627 65.696 91.724 115.67 162.59 129.44 69.325 14.2 144.64-5.8451 197.12-53.469 50.821-45.073 79.901-113.84 75.844-182.03-3.3626-73.283-44.762-143.36-107.19-181.62-35.684-22.27-77.404-34.384-119.44-34.438zm0.90625 151.22c29.034-0.038 55.664 19.97 67.688 45.844 19.486 38.376-3.652 89.219-43.594 103.12-40.469 15.726-90.534-11.779-100.84-53.594-12.144-45.256 27.128-95.759 73.938-95.312 0.94118-0.0434 1.8759-0.0613 2.8125-0.0625z" fill="url(#b)"/>
  <path d="m392.67 788.11 141.23-52.542c36.71 107.25-8.3588 196.35-60.15 245.11l-100.8-113.18c17.477-20.091 28.301-37.703 19.719-79.391z" fill="url(#c)"/>
  <path d="m320.09 743.52c-42.467-0.57252-78.09 45.135-66.969 86.219 10.532 40.23 61.574 64.118 98.469 43.812 33.834-17.295 48.83-65.606 26.219-97.219-12.404-19.386-34.266-33.454-57.719-32.812zm-0.375 29.906c5.5499-0.21566 11.059 1.1983 15.969 3.6875 23.009 9.1887 29.599 42.112 13.875 60.594-15.789 19.881-50.084 15.216-63.062-5.4375-15.087-23.692 5.6541-58.762 33.219-58.844z" fill="#ccc" opacity=".27317" stroke="#999"/>
  <path d="m256.67 770.37-124.94-86.107c-60.164 86.582-42.59 194.37-2.888 252.37l124.97-84.275c-9.814-22.741-19.061-45.307 2.8592-81.987z" fill="#b7b7c8"/>
  <path d="m364.13 874.79c-2.4787 2.0826-5.5894 3.7334-8.8192 5.8166l60.373 137.82c11.017-4.8585 20.97-10.249 30.491-15.856z" fill="url(#d)"/>
  <path d="m322.03 735.58c-0.93658 1e-3 -1.8713 0.0191-2.8125 0.0625-46.81-0.44602-86.082 50.056-73.938 95.312 10.309 41.815 60.374 69.32 100.84 53.594 39.942-13.906 63.08-64.749 43.594-103.12-12.023-25.874-38.654-45.882-67.688-45.844zm-2.3125 37.844c5.5499-0.21566 11.059 1.1983 15.969 3.6875 23.009 9.1887 29.599 42.112 13.875 60.594-15.789 19.881-50.084 15.216-63.062-5.4375-15.087-23.692 5.6541-58.762 33.219-58.844z" fill="#ccc" opacity=".39512"/>
  <path d="m279.81 748.09c3.7576-2.7411 7.7815-5.2158 12.562-6.9344l-66.953-136.46c-10.4 5.3616-20.36 11.122-29.698 16.483z" fill="url(#e)"/>
 </g>
</svg>
